<?xml version="1.0" encoding="UTF-8" standalone="no"?>
<!-- Created with Inkscape (http://www.inkscape.org/) -->

<svg
   width="265"
   height="265"
   viewBox="0 0 70.114575 70.114575"
   version="1.1"
   id="svg4811"
   inkscape:version="1.3 (0e150ed6c4, 2023-07-21)"
   sodipodi:docname="logo-pwa.svg"
   inkscape:export-filename="/home/stefan/Projects/new/petboarding/frontend/app-icon.png"
   inkscape:export-xdpi="48"
   inkscape:export-ydpi="48"
   xmlns:inkscape="http://www.inkscape.org/namespaces/inkscape"
   xmlns:sodipodi="http://sodipodi.sourceforge.net/DTD/sodipodi-0.dtd"
   xmlns="http://www.w3.org/2000/svg"
   xmlns:svg="http://www.w3.org/2000/svg"
   xmlns:rdf="http://www.w3.org/1999/02/22-rdf-syntax-ns#"
   xmlns:cc="http://creativecommons.org/ns#">
  <defs
     id="defs4805" />
  <sodipodi:namedview
     id="base"
     pagecolor="#ffffff"
     bordercolor="#666666"
     borderopacity="1.0"
     inkscape:pageopacity="0.0"
     inkscape:pageshadow="2"
     inkscape:zoom="1.979899"
     inkscape:cx="29.041885"
     inkscape:cy="116.92516"
     inkscape:document-units="mm"
     inkscape:current-layer="layer1"
     showgrid="false"
     fit-margin-top="0"
     fit-margin-left="0"
     fit-margin-right="0"
     fit-margin-bottom="0"
     inkscape:window-width="2048"
     inkscape:window-height="1083"
     inkscape:window-x="0"
     inkscape:window-y="0"
     inkscape:window-maximized="1"
     units="px"
     inkscape:showpageshadow="2"
     inkscape:pagecheckerboard="0"
     inkscape:deskcolor="#d1d1d1" />
  <metadata
     id="metadata4808">
    <rdf:RDF>
      <cc:Work
         rdf:about="" />
    </rdf:RDF>
  </metadata>
  <g
     inkscape:label="Layer 1"
     inkscape:groupmode="layer"
     id="layer1"
     transform="translate(18.345982,440.13295)">
    <rect
       style="fill:#ffffff;stroke-width:0.264583"
       id="rect1"
       width="70.114586"
       height="70.114586"
       x="-18.345984"
       y="-440.13297" />
    <g
       id="g1"
       transform="translate(1.1084635,-2.3965404)">
      <path
         style="fill:#000000;fill-opacity:0.740741;stroke:none;stroke-width:0.807611px;stroke-linecap:butt;stroke-linejoin:miter;stroke-opacity:1"
         d="m 9.470101,-405.95588 c 5.456636,-1.2537 10.948969,-3.48545 16.405607,-5.48694 0,0 3.514849,-1.11934 7.169684,-0.87158 3.654828,0.24786 7.929129,-2.16811 9.353893,-3.22119 3.507005,-3.03775 2.62492,-5.15678 -0.359005,-7.99742 -0.595899,-0.50436 -2.242738,-2.09982 -0.07461,-1.23257 6.641135,3.4483 4.927782,10.16993 0.06194,12.94676 -3.097312,1.67257 -3.964561,2.04422 -3.964561,2.04422 0,0 4.769865,5.63713 3.90262,8.48666 -0.867255,2.84952 0.495563,0.12392 0.495563,0.12392 l 2.168123,0.61948 3.84067,8.61055 c 0,0 -2.044226,0.92918 -3.778719,-0.49559 -1.734495,-1.42475 -2.911479,-3.65484 -2.911479,-3.65484 0,0 -2.292015,1.42477 -2.849529,1.42477 -0.557515,0 1.486711,3.40705 1.486711,3.40705 0,0 -0.433622,1.23893 -1.486711,0.99114 -1.053092,-0.24786 -3.778722,-1.98229 -4.150401,-2.60174 -0.371689,-0.61948 -0.929207,-1.30086 -0.929207,-1.30086 l -2.694665,1.39377 c 0,0 -4.305271,0.0619 -5.327385,-0.65043 -1.022114,-0.71239 -1.486708,-0.89822 -1.486708,-0.89822 l -12.327317,8.02205 c 0,0 0.898221,1.23892 -0.09291,1.95129 -0.991143,0.7124 -7.7123176,4.52209 -7.7123176,4.52209 0,0 -4.70792027,0.43362 -4.98667588,-0.80531 -0.27874552,-1.2389 3.96456238,-3.71678 3.96456238,-3.71678 l -3.7167788,-2.60173 -4.7354441,2.64447 -0.034431,0.0183 c 0,0 -5.482247,1.20795 -5.91587,-0.7124 -0.190805,-0.84493 1.069487,-2.01964 2.5408523,-3.07036 0.2069519,-0.14774 0.418101,-0.29303 0.6299643,-0.43476 1.7052143,-1.13991 3.457435,-2.03906 3.457435,-2.03906 l -1.084065,-13.34943 -9.4547586,3.65969 -2.253094,-3.16414 c 0,0 7.309664,-10.12823 7.34064,-11.3052 0.062666,-0.50575 -1.310596,-0.52263 -2.292015,-1.17697 -4.91963,-3.07706 -4.367322,-6.5594 -3.066342,-10.09725 0,0 7.6503691,-6.84507 8.1149673,-6.50436 0.4645951,0.34071 0.5265432,0.12392 0.5265432,0.12392 l -1.1769799,12.54413 c 0.2604909,0.78804 0.5094499,1.58472 1.331846,1.95131 0,0 4.6072739,0.30096 6.19462979,0.62503 0.84764498,-0.3429 1.11654848,-0.38212 1.11503418,-0.37724 l 1.17698003,-2.16814 1.0840604,-11.49103 c 0,0 6.9689576,6.03977 7.40258,7.7433 0.433626,1.70351 0.433626,4.615 -0.154879,5.35835 -0.5884884,0.74335 -3.6548286,4.08847 -4.8008358,4.05748 -1.1460053,-0.0311 -2.1990945,0.58847 -2.1990945,0.58847 2.0958556,2.69496 3.8054074,5.08275 6.2518829,7.56733 z"
         id="path3815"
         inkscape:connector-curvature="0"
         sodipodi:nodetypes="ccccccccccccscscccccsccccccccccsscccccccccccccccccccc" />
      <path
         style="fill:#c65a32;fill-opacity:1;stroke:#a24e3b;stroke-width:0;stroke-linecap:butt;stroke-linejoin:miter;stroke-miterlimit:4;stroke-dasharray:none;stroke-opacity:1"
         d="m -15.12581,-400.22998 1.357883,-3.06619 9.5051744,-4.20503 c 0,0 4.20505359,0.13155 4.94970052,0.43801 0.74464508,0.30661 1.40168508,0.52562 1.40168508,0.52562 l -5.2563189,10.46884 -2.5033655,-7.82092 z"
         id="path3836"
         inkscape:connector-curvature="0"
         sodipodi:nodetypes="cccccccc" />
      <ellipse
         id="path3848"
         cx="-2.4011388"
         cy="-411.57486"
         rx="0.85415167"
         ry="1.0074611"
         style="stroke-width:0.807611" />
      <ellipse
         id="path3856"
         cx="-9.07164"
         cy="-412.29291"
         rx="0.87605315"
         ry="0.92533094"
         style="stroke-width:0.807611" />
      <path
         style="fill:#c65a32;fill-opacity:1;stroke:#000000;stroke-width:0;stroke-linecap:butt;stroke-linejoin:miter;stroke-miterlimit:4;stroke-dasharray:none;stroke-opacity:1"
         d="m -5.2993834,-384.28455 c 0,0 -2.2480511,0.43564 -3.2072676,0.37764 -0.9592166,-0.058 -2.024488,0.0513 -2.535553,-0.6942 -0.595466,-0.77696 0.335308,-1.76602 0.703503,-2.11366 0.326175,-0.36812 1.9062322,-1.58611 1.9685529,-1.55211 l 3.0707647,3.98233"
         id="path4730"
         inkscape:connector-curvature="0"
         sodipodi:nodetypes="cscccc" />
      <path
         style="fill:#c65a32;fill-opacity:1;stroke:#000000;stroke-width:0;stroke-linecap:butt;stroke-linejoin:miter;stroke-miterlimit:4;stroke-dasharray:none;stroke-opacity:1"
         d="m 5.0847857,-380.31696 -0.8754023,0.49345 c 0.018318,0.0152 -1.0267896,0.0778 -1.5537393,0.0744 -0.4898866,-0.003 -1.75087757,-0.0531 -1.92438553,-0.10409 -0.17352803,-0.0244 -1.03160071,-0.19565 -1.27135572,-0.41958 -0.23976508,-0.22404 -0.28707788,-0.48896 -0.22084087,-0.68773 -0.00946,-0.21611 0.70582245,-1.15191 1.36284695,-1.61524 0.60467527,-0.51047 1.82053917,-1.3316 1.82974807,-1.31549 z"
         id="path4751"
         inkscape:connector-curvature="0"
         sodipodi:nodetypes="ccscccccc" />
      <path
         style="fill:#c65a32;fill-opacity:1;stroke:#000000;stroke-width:0;stroke-linecap:butt;stroke-linejoin:miter;stroke-miterlimit:4;stroke-dasharray:none;stroke-opacity:1"
         d="m 24.341931,-394.31897 c 0,0 1.433308,0.91358 1.71885,1.03406 0.28552,0.12057 2.328625,0.53825 3.711934,0.52644 l 1.38331,-0.0122 2.694668,-1.39378 0.990244,1.39668 c 0,0 1.423212,1.28042 2.63673,1.86935 1.213518,0.58889 1.110901,0.53536 1.110901,0.53536 0,0 0.316768,0.12483 0.481839,0.13827 0.165072,0.0122 0.205211,0.006 0.205211,0.006 0,0 0.49153,0.14926 0.816448,-0.44169 l 0.324926,-0.59103 c 0,0 -0.75636,-1.30785 -1.005578,-1.81891 -0.249228,-0.51107 -0.59565,-1.42896 -0.551381,-1.55001 0.515414,-0.0275 2.831387,-1.34397 2.919771,-1.46292 0.05284,0.0671 0.283537,0.52504 0.261926,0.47959 0,0 2.132577,3.03377 3.145334,3.53794 1.01275,0.50412 2.177881,0.47382 2.73042,0.30341 l 0.552525,-0.17033 -3.840666,-8.61054 -2.849539,4.46008 c -1.294596,0.75333 -1.976925,1.01425 -2.939322,1.4625 -0.283078,-0.003 -3.555325,-0.0431 -4.186941,-0.2735 -0.660302,-0.24084 -1.222537,-1.13698 -2.034479,-1.30465 -0.811939,-0.16758 -5.580521,0.67106 -6.79194,1.20105 -1.211417,0.53002 -1.485212,0.6801 -1.485212,0.6801"
         id="path4753"
         inkscape:connector-curvature="0"
         sodipodi:nodetypes="cccccccccccccccccccccccccc" />
      <path
         style="fill:#000000;fill-opacity:0.973545;stroke:#000000;stroke-width:0;stroke-linecap:butt;stroke-linejoin:miter;stroke-miterlimit:4;stroke-dasharray:none;stroke-opacity:1"
         d="m -17.048767,-403.45746 2.709766,0.12576 -0.786818,3.10098 z"
         id="path4767"
         inkscape:connector-curvature="0"
         sodipodi:nodetypes="cccc" />
      <ellipse
         id="path4771"
         cx="118.83716"
         cy="-362.60016"
         rx="19.07366"
         ry="6.2820873"
         style="fill:#000000;fill-opacity:0.258824;stroke-width:1.00861"
         transform="rotate(-14.1615)" />
    </g>
  </g>
</svg>
